# xmcd
#
# Track frame offsets:
#	150
#	15092
#	42708
#	63153
#	78139
#	95926
#	114508
#	126763
#	142368
#	162296
#	183270
#	199542
#	218616
#	230148
#
# Disc length: 3214 seconds
#
# Revision: 0
# Processed by: cddbd v1.4PL0 Copyright (c) Steve Scherf et al.
# Submitted via: EasyCDDAExtractor 4.6.0.1
#
DISCID=c00c8c0e
DTITLE=Marlies Helder - Out of the blue
DYEAR=2000
DGENRE=Blues
TTITLE0=There must be more
TTITLE1=Overheated
TTITLE2=Suzanna
TTITLE3=You're still standin' there
TTITLE4=Fish out of water
TTITLE5=Ruby and me
TTITLE6=Mystery train
TTITLE7=Al pacino
TTITLE8=Bottle of wine
TTITLE9=Loaded
TTITLE10=Rosalie
TTITLE11=Man in the moon
TTITLE12=Hang down your head
TTITLE13=Tonight
EXTD=
EXTT0=
EXTT1=
EXTT2=
EXTT3=
EXTT4=
EXTT5=
EXTT6=
EXTT7=
EXTT8=
EXTT9=
EXTT10=
EXTT11=
EXTT12=
EXTT13=
PLAYORDER=
